# xmcd
#
# Track frame offsets:
#	150
#	20529
#	35375
#	55270
#	74029
#	93417
#	110785
#	126501
#	149960
#	169003
#	192016
#	210585
#	229041
#	252578
#	254086
#	277672
#	296219
#
# Disc length: 4161 seconds
#
# Revision: 0
# Processed by: cddbd v1.5.1PL2 Copyright (c) Steve Scherf et al.
# Submitted via: dBpowerAMP V4.0
#
DISCID=15103f11
DTITLE=Mos Def - Black on Both Sides
DYEAR=1999
DGENRE=Hip-Hop
TTITLE0=Fear Not Of Man 
TTITLE1=Hip Hop 
TTITLE2=Love
TTITLE3=Ms. Fat Booty
TTITLE4=Speed Law
TTITLE5=Do It Now
TTITLE6=Got
TTITLE7=Umi Says
TTITLE8=New World Water
TTITLE9=Rock N Roll
TTITLE10=Know That
TTITLE11=Climb
TTITLE12=Brooklyn
TTITLE13=Habitat
TTITLE14=Mr. Nigga
TTITLE15=Mathematics
TTITLE16=May-December
EXTD=As if this aint on Freedb. Oh well, it is now!
EXTT0=
EXTT1=
EXTT2=
EXTT3=
EXTT4=
EXTT5=
EXTT6=
EXTT7=
EXTT8=
EXTT9=
EXTT10=
EXTT11=
EXTT12=
EXTT13=
EXTT14=
EXTT15=
EXTT16=
PLAYORDER=
